# xmcd
#
# Track frame offsets:
#	150
#	20397
#	42203
#	60626
#	79048
#	99883
#	119625
#	137249
#	156597
#
# Disc length: 2319 seconds
#
# Revision: 2
# Processed by: cddbd v1.5.2PL0 Copyright (c) Steve Scherf et al.
# Submitted via: EZCDAudioConverter 8.0.2.1
#
DISCID=73090d09
DTITLE=Hoàng Hải - Tìm Lại Thời Gian
DYEAR=2011
DGENRE=Pop
TTITLE0=Tìm lại thời gian
TTITLE1=Vu vơ
TTITLE2=Dối gian
TTITLE3=Làm sao anh quên
TTITLE4=Nơi đó
TTITLE5=Tặng em
TTITLE6=Hãy cho anh được quên
TTITLE7=Anh sai
TTITLE8=Nơi đó [Remix]
EXTD=
EXTT0=
EXTT1=
EXTT2=
EXTT3=
EXTT4=
EXTT5=
EXTT6=
EXTT7=
EXTT8=
PLAYORDER=
